<svg xmlns="http://www.w3.org/2000/svg" xmlns:xlink="http://www.w3.org/1999/xlink" xmlns:lucid="lucid" width="1640" height="1037.87"><g transform="translate(-180 -171.06666666666672)" lucid:page-tab-id="0_0"><path d="M0 0h1870.4v1323.2H0z" fill="#fff"/><path d="M200 1020h580v160H200z" stroke="#000" stroke-width="2" fill="#fff"/><use xlink:href="#a" transform="matrix(1,0,0,1,205,1025) translate(110.5873456790126 84.82222222222221)"/><path d="M200 600h580v180H200z" stroke="#000" stroke-width="2" fill="#fff"/><use xlink:href="#b" transform="matrix(1,0,0,1,205,605) translate(82.07561728395089 94.82222222222221)"/><path d="M200 200h800v160H200z" stroke="#000" stroke-width="2" fill="#fff"/><use xlink:href="#c" transform="matrix(1,0,0,1,205,205) translate(88.32839506172883 84.82222222222221)"/><path d="M1220 440h580v160h-580z" stroke="#000" stroke-width="2" fill="#fff"/><use xlink:href="#d" transform="matrix(1,0,0,1,1225,445) translate(170.6120370370372 84.82222222222221)"/><path d="M1220 780h580v160h-580z" stroke="#000" stroke-width="2" fill="#fff"/><use xlink:href="#d" transform="matrix(1,0,0,1,1225,785) translate(170.6120370370372 84.82222222222221)"/><path d="M1218 520h-218v126.58H799.5" stroke="#000" stroke-width="2" fill="none"/><path d="M1219 521h-1.03v-2h1.03z" stroke="#000" stroke-width=".05"/><path d="M784.24 646.58l14.26-4.63v9.27z" stroke="#000" stroke-width="2"/><path d="M920 440h240v68.93H920z" stroke="#000" stroke-opacity="0" stroke-width="2" fill="#fff" fill-opacity="0"/><use xlink:href="#e" transform="matrix(1,0,0,1,925,445) translate(1.260493827160687 37.54444444444443)"/><path d="M1420 1120h240v68.93h-240z" stroke="#000" stroke-opacity="0" stroke-width="2" fill="#fff" fill-opacity="0"/><use xlink:href="#f" transform="matrix(1,0,0,1,1425,1125) translate(14.556172839506345 37.54444444444443)"/><path d="M1510 438V280h-490.5" stroke="#000" stroke-width="2" fill="none"/><path d="M1511 439h-2v-1.03h2z" stroke="#000" stroke-width=".05"/><path d="M1004.24 280l14.26-4.63v9.26z" stroke="#000" stroke-width="2"/><path d="M1218 860h-218V751.94H799.5" stroke="#000" stroke-width="2" fill="none"/><path d="M1219 861h-1.03v-2h1.03z" stroke="#000" stroke-width=".05"/><path d="M784.24 751.94l14.26-4.63v9.28z" stroke="#000" stroke-width="2"/><path d="M1510 942v159H799.5" stroke="#000" stroke-width="2" fill="none"/><path d="M1511 942.03h-2V941h2z" stroke="#000" stroke-width=".05"/><path d="M784.24 1101l14.26-4.63v9.27z" stroke="#000" stroke-width="2"/><path d="M920 880h240v68.93H920z" stroke="#000" stroke-opacity="0" stroke-width="2" fill="#fff" fill-opacity="0"/><use xlink:href="#e" transform="matrix(1,0,0,1,925,885) translate(1.260493827160687 37.54444444444443)"/><path d="M1420 191.07h240V260h-240z" stroke="#000" stroke-opacity="0" stroke-width="2" fill="#fff" fill-opacity="0"/><use xlink:href="#f" transform="matrix(1,0,0,1,1425,196.06666666666672) translate(14.556172839506345 37.54444444444443)"/><path d="M400 820h240v68.93H400z" stroke="#000" stroke-opacity="0" stroke-width="2" fill="#fff" fill-opacity="0"/><use xlink:href="#g" transform="matrix(1,0,0,1,405,825) translate(-75.83209876543177 37.54444444444443)"/><path d="M400 500h240v68.93H400z" stroke="#000" stroke-opacity="0" stroke-width="2" fill="#fff" fill-opacity="0"/><use xlink:href="#g" transform="matrix(1,0,0,1,405,505) translate(-75.83209876543177 37.54444444444443)"/><path d="M274.86 598V379.5" stroke="#000" stroke-width="2" fill="none"/><path d="M275.86 599h-2v-1.03h2z" stroke="#000" stroke-width=".05"/><path d="M274.86 364.24l4.63 14.26h-9.28z" stroke="#000" stroke-width="2"/><path d="M282.12 782v218.5" stroke="#000" stroke-width="2" fill="none"/><path d="M283.12 782.03h-2V781h2z" stroke="#000" stroke-width=".05"/><path d="M282.12 1015.76l-4.63-14.26h9.26z" stroke="#000" stroke-width="2"/><defs><path d="M100-194c62-1 85 37 85 99 1 63-27 99-86 99S16-35 15-95c0-66 28-99 85-99zM99-20c44 1 53-31 53-75 0-43-8-75-51-75s-53 32-53 75 10 74 51 75" id="h"/><path d="M114-163C36-179 61-72 57 0H25l-1-190h30c1 12-1 29 2 39 6-27 23-49 58-41v29" id="i"/><path d="M100-194c63 0 86 42 84 106H49c0 40 14 67 53 68 26 1 43-12 49-29l28 8c-11 28-37 45-77 45C44 4 14-33 15-96c1-61 26-98 85-98zm52 81c6-60-76-77-97-28-3 7-6 17-6 28h103" id="j"/><path d="M33-154v-36h34v36H33zM33 0v-36h34V0H33" id="k"/><path d="M205 0l-28-72H64L36 0H1l101-248h38L239 0h-34zm-38-99l-47-123c-12 45-31 82-46 123h93" id="l"/><path d="M177-190C167-65 218 103 67 71c-23-6-38-20-44-43l32-5c15 47 100 32 89-28v-30C133-14 115 1 83 1 29 1 15-40 15-95c0-56 16-97 71-98 29-1 48 16 59 35 1-10 0-23 2-32h30zM94-22c36 0 50-32 50-73 0-42-14-75-50-75-39 0-46 34-46 75s6 73 46 73" id="m"/><path d="M141-36C126-15 110 5 73 4 37 3 15-17 15-53c-1-64 63-63 125-63 3-35-9-54-41-54-24 1-41 7-42 31l-33-3c5-37 33-52 76-52 45 0 72 20 72 64v82c-1 20 7 32 28 27v20c-31 9-61-2-59-35zM48-53c0 20 12 33 32 33 41-3 63-29 60-74-43 2-92-5-92 41" id="n"/><path d="M59-47c-2 24 18 29 38 22v24C64 9 27 4 27-40v-127H5v-23h24l9-43h21v43h35v23H59v120" id="o"/><path d="M24-231v-30h32v30H24zM24 0v-190h32V0H24" id="p"/><path d="M117-194c89-4 53 116 60 194h-32v-121c0-31-8-49-39-48C34-167 62-67 57 0H25l-1-190h30c1 10-1 24 2 32 11-22 29-35 61-36" id="q"/><g id="a"><use transform="matrix(0.13641975308641957,0,0,0.13641975308641957,0,0)" xlink:href="#h"/><use transform="matrix(0.13641975308641957,0,0,0.13641975308641957,27.283950617283914,0)" xlink:href="#i"/><use transform="matrix(0.13641975308641957,0,0,0.13641975308641957,43.517901234567844,0)" xlink:href="#j"/><use transform="matrix(0.13641975308641957,0,0,0.13641975308641957,70.80185185185175,0)" xlink:href="#k"/><use transform="matrix(0.13641975308641957,0,0,0.13641975308641957,84.44382716049371,0)" xlink:href="#l"/><use transform="matrix(0.13641975308641957,0,0,0.13641975308641957,117.1845679012344,0)" xlink:href="#m"/><use transform="matrix(0.13641975308641957,0,0,0.13641975308641957,144.46851851851832,0)" xlink:href="#m"/><use transform="matrix(0.13641975308641957,0,0,0.13641975308641957,171.75246913580224,0)" xlink:href="#i"/><use transform="matrix(0.13641975308641957,0,0,0.13641975308641957,187.98641975308618,0)" xlink:href="#j"/><use transform="matrix(0.13641975308641957,0,0,0.13641975308641957,215.2703703703701,0)" xlink:href="#m"/><use transform="matrix(0.13641975308641957,0,0,0.13641975308641957,242.55432098765402,0)" xlink:href="#n"/><use transform="matrix(0.13641975308641957,0,0,0.13641975308641957,269.8382716049379,0)" xlink:href="#o"/><use transform="matrix(0.13641975308641957,0,0,0.13641975308641957,283.4802469135799,0)" xlink:href="#p"/><use transform="matrix(0.13641975308641957,0,0,0.13641975308641957,294.257407407407,0)" xlink:href="#h"/><use transform="matrix(0.13641975308641957,0,0,0.13641975308641957,321.5413580246909,0)" xlink:href="#q"/></g><path d="M85-194c31 0 48 13 60 33l-1-100h32l1 261h-30c-2-10 0-23-3-31C134-8 116 4 85 4 32 4 16-35 15-94c0-66 23-100 70-100zm9 24c-40 0-46 34-46 75 0 40 6 74 45 74 42 0 51-32 51-76 0-42-9-74-50-73" id="r"/><path d="M210-169c-67 3-38 105-44 169h-31v-121c0-29-5-50-35-48C34-165 62-65 56 0H25l-1-190h30c1 10-1 24 2 32 10-44 99-50 107 0 11-21 27-35 58-36 85-2 47 119 55 194h-31v-121c0-29-5-49-35-48" id="s"/><path d="M115-194c55 1 70 41 70 98S169 2 115 4C84 4 66-9 55-30l1 105H24l-1-265h31l2 30c10-21 28-34 59-34zm-8 174c40 0 45-34 45-75s-6-73-45-74c-42 0-51 32-51 76 0 43 10 73 51 73" id="t"/><path d="M108 0H70L1-190h34L89-25l56-165h34" id="u"/><path d="M212-179c-10-28-35-45-73-45-59 0-87 40-87 99 0 60 29 101 89 101 43 0 62-24 78-52l27 14C228-24 195 4 139 4 59 4 22-46 18-125c-6-104 99-153 187-111 19 9 31 26 39 46" id="v"/><path d="M197 0v-115H63V0H30v-248h33v105h134v-105h34V0h-34" id="w"/><path d="M140-251c81 0 123 46 123 126C263-46 219 4 140 4 59 4 17-45 17-125s42-126 123-126zm0 227c63 0 89-41 89-101s-29-99-89-99c-61 0-89 39-89 99S79-25 140-24" id="x"/><g id="b"><use transform="matrix(0.13641975308641957,0,0,0.13641975308641957,0,0)" xlink:href="#j"/><use transform="matrix(0.13641975308641957,0,0,0.13641975308641957,27.283950617283914,0)" xlink:href="#r"/><use transform="matrix(0.13641975308641957,0,0,0.13641975308641957,54.56790123456783,0)" xlink:href="#s"/><use transform="matrix(0.13641975308641957,0,0,0.13641975308641957,95.35740740740728,0)" xlink:href="#k"/><use transform="matrix(0.13641975308641957,0,0,0.13641975308641957,108.99938271604924,0)" xlink:href="#t"/><use transform="matrix(0.13641975308641957,0,0,0.13641975308641957,136.28333333333316,0)" xlink:href="#i"/><use transform="matrix(0.13641975308641957,0,0,0.13641975308641957,152.5172839506171,0)" xlink:href="#h"/><use transform="matrix(0.13641975308641957,0,0,0.13641975308641957,179.80123456790102,0)" xlink:href="#u"/><use transform="matrix(0.13641975308641957,0,0,0.13641975308641957,204.35679012345653,0)" xlink:href="#p"/><use transform="matrix(0.13641975308641957,0,0,0.13641975308641957,215.1339506172837,0)" xlink:href="#r"/><use transform="matrix(0.13641975308641957,0,0,0.13641975308641957,242.4179012345676,0)" xlink:href="#j"/><use transform="matrix(0.13641975308641957,0,0,0.13641975308641957,269.70185185185153,0)" xlink:href="#r"/><use transform="matrix(0.13641975308641957,0,0,0.13641975308641957,296.9858024691354,0)" xlink:href="#v"/><use transform="matrix(0.13641975308641957,0,0,0.13641975308641957,332.3185185185181,0)" xlink:href="#w"/><use transform="matrix(0.13641975308641957,0,0,0.13641975308641957,367.65123456790076,0)" xlink:href="#x"/></g><path d="M30 0v-248h187v28H63v79h144v27H63v87h162V0H30" id="y"/><path d="M84 4C-5 8 30-112 23-190h32v120c0 31 7 50 39 49 72-2 45-101 50-169h31l1 190h-30c-1-10 1-25-2-33-11 22-28 36-60 37" id="z"/><g id="c"><use transform="matrix(0.13641975308641957,0,0,0.13641975308641957,0,0)" xlink:href="#j"/><use transform="matrix(0.13641975308641957,0,0,0.13641975308641957,27.283950617283914,0)" xlink:href="#r"/><use transform="matrix(0.13641975308641957,0,0,0.13641975308641957,54.56790123456783,0)" xlink:href="#s"/><use transform="matrix(0.13641975308641957,0,0,0.13641975308641957,95.35740740740728,0)" xlink:href="#k"/><use transform="matrix(0.13641975308641957,0,0,0.13641975308641957,108.99938271604924,0)" xlink:href="#y"/><use transform="matrix(0.13641975308641957,0,0,0.13641975308641957,141.74012345678995,0)" xlink:href="#z"/><use transform="matrix(0.13641975308641957,0,0,0.13641975308641957,169.02407407407387,0)" xlink:href="#i"/><use transform="matrix(0.13641975308641957,0,0,0.13641975308641957,185.2580246913578,0)" xlink:href="#h"/><use transform="matrix(0.13641975308641957,0,0,0.13641975308641957,212.54197530864172,0)" xlink:href="#t"/><use transform="matrix(0.13641975308641957,0,0,0.13641975308641957,239.82592592592565,0)" xlink:href="#j"/><use transform="matrix(0.13641975308641957,0,0,0.13641975308641957,267.10987654320957,0)" xlink:href="#n"/><use transform="matrix(0.13641975308641957,0,0,0.13641975308641957,294.39382716049346,0)" xlink:href="#q"/><use transform="matrix(0.13641975308641957,0,0,0.13641975308641957,321.67777777777735,0)" xlink:href="#n"/><use transform="matrix(0.13641975308641957,0,0,0.13641975308641957,348.96172839506124,0)" xlink:href="#l"/><use transform="matrix(0.13641975308641957,0,0,0.13641975308641957,381.70246913580195,0)" xlink:href="#m"/><use transform="matrix(0.13641975308641957,0,0,0.13641975308641957,408.9864197530858,0)" xlink:href="#m"/><use transform="matrix(0.13641975308641957,0,0,0.13641975308641957,436.27037037036973,0)" xlink:href="#i"/><use transform="matrix(0.13641975308641957,0,0,0.13641975308641957,452.50432098765367,0)" xlink:href="#j"/><use transform="matrix(0.13641975308641957,0,0,0.13641975308641957,479.78827160493756,0)" xlink:href="#m"/><use transform="matrix(0.13641975308641957,0,0,0.13641975308641957,507.07222222222146,0)" xlink:href="#n"/><use transform="matrix(0.13641975308641957,0,0,0.13641975308641957,534.3561728395053,0)" xlink:href="#o"/><use transform="matrix(0.13641975308641957,0,0,0.13641975308641957,547.9981481481473,0)" xlink:href="#p"/><use transform="matrix(0.13641975308641957,0,0,0.13641975308641957,558.7753086419744,0)" xlink:href="#h"/><use transform="matrix(0.13641975308641957,0,0,0.13641975308641957,586.0592592592584,0)" xlink:href="#q"/></g><path d="M110-194c64 0 96 36 96 99 0 64-35 99-97 99-61 0-95-36-95-99 0-62 34-99 96-99zm-1 164c35 0 45-28 45-65 0-40-10-65-43-65-34 0-45 26-45 65 0 36 10 65 43 65" id="A"/><path d="M135-150c-39-12-60 13-60 57V0H25l-1-190h47c2 13-1 29 3 40 6-28 27-53 61-41v41" id="B"/><path d="M185-48c-13 30-37 53-82 52C43 2 14-33 14-96s30-98 90-98c62 0 83 45 84 108H66c0 31 8 55 39 56 18 0 30-7 34-22zm-45-69c5-46-57-63-70-21-2 6-4 13-4 21h74" id="C"/><path d="M35-132v-50h50v50H35zM35 0v-49h50V0H35" id="D"/><path d="M24-248c93 1 206-16 204 79-1 75-69 88-152 82V0H24v-248zm52 121c47 0 100 7 100-41 0-47-54-39-100-39v80" id="E"/><path d="M144 0l-44-69L55 0H2l70-98-66-92h53l41 62 40-62h54l-67 91 71 99h-54" id="F"/><path d="M123 10C108 53 80 86 19 72V37c35 8 53-11 59-39L3-190h52l48 148c12-52 28-100 44-148h51" id="G"/><g id="d"><use transform="matrix(0.13641975308641957,0,0,0.13641975308641957,0,0)" xlink:href="#A"/><use transform="matrix(0.13641975308641957,0,0,0.13641975308641957,29.875925925925888,0)" xlink:href="#B"/><use transform="matrix(0.13641975308641957,0,0,0.13641975308641957,48.97469135802463,0)" xlink:href="#C"/><use transform="matrix(0.13641975308641957,0,0,0.13641975308641957,76.25864197530854,0)" xlink:href="#D"/><use transform="matrix(0.13641975308641957,0,0,0.13641975308641957,92.49259259259246,0)" xlink:href="#E"/><use transform="matrix(0.13641975308641957,0,0,0.13641975308641957,125.23333333333315,0)" xlink:href="#B"/><use transform="matrix(0.13641975308641957,0,0,0.13641975308641957,144.33209876543188,0)" xlink:href="#A"/><use transform="matrix(0.13641975308641957,0,0,0.13641975308641957,174.20802469135776,0)" xlink:href="#F"/><use transform="matrix(0.13641975308641957,0,0,0.13641975308641957,201.49197530864168,0)" xlink:href="#G"/></g><path d="M141 0L90-78 38 0H4l68-98-65-92h35l48 74 47-74h35l-64 92 68 98h-35" id="H"/><path d="M179-190L93 31C79 59 56 82 12 73V49c39 6 53-20 64-50L1-190h34L92-34l54-156h33" id="I"/><path d="M63-220v92h138v28H63V0H30v-248h175v28H63" id="J"/><g id="e"><use transform="matrix(0.11172839506172821,0,0,0.11172839506172821,0,0)" xlink:href="#h"/><use transform="matrix(0.11172839506172821,0,0,0.11172839506172821,22.34567901234564,0)" xlink:href="#i"/><use transform="matrix(0.11172839506172821,0,0,0.11172839506172821,35.6413580246913,0)" xlink:href="#j"/><use transform="matrix(0.11172839506172821,0,0,0.11172839506172821,57.98703703703694,0)" xlink:href="#k"/><use transform="matrix(0.11172839506172821,0,0,0.11172839506172821,69.15987654320976,0)" xlink:href="#t"/><use transform="matrix(0.11172839506172821,0,0,0.11172839506172821,91.5055555555554,0)" xlink:href="#i"/><use transform="matrix(0.11172839506172821,0,0,0.11172839506172821,104.80123456790106,0)" xlink:href="#h"/><use transform="matrix(0.11172839506172821,0,0,0.11172839506172821,127.1469135802467,0)" xlink:href="#H"/><use transform="matrix(0.11172839506172821,0,0,0.11172839506172821,147.25802469135778,0)" xlink:href="#I"/><use transform="matrix(0.11172839506172821,0,0,0.11172839506172821,167.36913580246886,0)" xlink:href="#J"/><use transform="matrix(0.11172839506172821,0,0,0.11172839506172821,191.83765432098733,0)" xlink:href="#h"/><use transform="matrix(0.11172839506172821,0,0,0.11172839506172821,214.18333333333297,0)" xlink:href="#i"/></g><path d="M33 0v-248h34V0H33" id="K"/><g id="f"><use transform="matrix(0.11172839506172821,0,0,0.11172839506172821,0,0)" xlink:href="#h"/><use transform="matrix(0.11172839506172821,0,0,0.11172839506172821,22.34567901234564,0)" xlink:href="#i"/><use transform="matrix(0.11172839506172821,0,0,0.11172839506172821,35.6413580246913,0)" xlink:href="#j"/><use transform="matrix(0.11172839506172821,0,0,0.11172839506172821,57.98703703703694,0)" xlink:href="#k"/><use transform="matrix(0.11172839506172821,0,0,0.11172839506172821,69.15987654320976,0)" xlink:href="#t"/><use transform="matrix(0.11172839506172821,0,0,0.11172839506172821,91.5055555555554,0)" xlink:href="#i"/><use transform="matrix(0.11172839506172821,0,0,0.11172839506172821,104.80123456790106,0)" xlink:href="#h"/><use transform="matrix(0.11172839506172821,0,0,0.11172839506172821,127.1469135802467,0)" xlink:href="#H"/><use transform="matrix(0.11172839506172821,0,0,0.11172839506172821,147.25802469135778,0)" xlink:href="#I"/><use transform="matrix(0.11172839506172821,0,0,0.11172839506172821,167.36913580246886,0)" xlink:href="#K"/><use transform="matrix(0.11172839506172821,0,0,0.11172839506172821,178.54197530864167,0)" xlink:href="#q"/></g><g id="g"><use transform="matrix(0.11172839506172821,0,0,0.11172839506172821,0,0)" xlink:href="#j"/><use transform="matrix(0.11172839506172821,0,0,0.11172839506172821,22.34567901234564,0)" xlink:href="#r"/><use transform="matrix(0.11172839506172821,0,0,0.11172839506172821,44.69135802469128,0)" xlink:href="#s"/><use transform="matrix(0.11172839506172821,0,0,0.11172839506172821,78.09814814814803,0)" xlink:href="#k"/><use transform="matrix(0.11172839506172821,0,0,0.11172839506172821,89.27098765432085,0)" xlink:href="#n"/><use transform="matrix(0.11172839506172821,0,0,0.11172839506172821,111.61666666666649,0)" xlink:href="#m"/><use transform="matrix(0.11172839506172821,0,0,0.11172839506172821,133.96234567901212,0)" xlink:href="#m"/><use transform="matrix(0.11172839506172821,0,0,0.11172839506172821,156.30802469135776,0)" xlink:href="#i"/><use transform="matrix(0.11172839506172821,0,0,0.11172839506172821,169.60370370370342,0)" xlink:href="#j"/><use transform="matrix(0.11172839506172821,0,0,0.11172839506172821,191.94938271604906,0)" xlink:href="#m"/><use transform="matrix(0.11172839506172821,0,0,0.11172839506172821,214.2950617283947,0)" xlink:href="#n"/><use transform="matrix(0.11172839506172821,0,0,0.11172839506172821,236.64074074074037,0)" xlink:href="#o"/><use transform="matrix(0.11172839506172821,0,0,0.11172839506172821,247.81358024691312,0)" xlink:href="#j"/><use transform="matrix(0.11172839506172821,0,0,0.11172839506172821,270.15925925925876,0)" xlink:href="#r"/><use transform="matrix(0.11172839506172821,0,0,0.11172839506172821,292.5049382716044,0)" xlink:href="#v"/><use transform="matrix(0.11172839506172821,0,0,0.11172839506172821,321.442592592592,0)" xlink:href="#w"/><use transform="matrix(0.11172839506172821,0,0,0.11172839506172821,350.38024691357964,0)" xlink:href="#x"/></g></defs></g></svg>